<?xml version="1.0" standalone="no"?>
<!DOCTYPE svg PUBLIC "-//W3C//DTD SVG 20010904//EN"
 "http://www.w3.org/TR/2001/REC-SVG-20010904/DTD/svg10.dtd">
<svg version="1.0" xmlns="http://www.w3.org/2000/svg"
 width="300.000000pt" height="225.000000pt" viewBox="0 0 300.000000 225.000000"
 preserveAspectRatio="xMidYMid meet">
<metadata>
Created by potrace 1.10, written by Peter Selinger 2001-2011
</metadata>
<g transform="translate(0.000000,225.000000) scale(0.100000,-0.100000)"
fill="#000000" stroke="none">
<path d="M1880 2151 c-28 -53 3 -156 65 -209 l33 -30 -29 -57 c-51 -101 -35
-176 46 -215 54 -26 129 -25 184 3 43 21 40 22 52 -10 9 -23 6 -31 -27 -64
-37 -38 -38 -38 -48 -16 -14 28 -50 33 -82 13 -29 -20 -31 -45 -3 -80 15 -19
30 -26 55 -26 78 0 134 49 134 117 0 21 12 41 40 68 l40 39 30 -18 c35 -20 70
-13 70 14 0 21 -19 30 -61 30 -20 0 -43 -12 -73 -40 -24 -22 -46 -40 -49 -40
-17 0 -15 54 4 90 48 91 -19 172 -115 140 -33 -11 -39 -9 -81 21 -32 23 -44
37 -39 48 14 32 16 131 4 161 -28 69 -125 108 -150 61z m104 -33 c17 -24 21
-136 7 -173 -7 -18 -9 -18 -34 7 -41 41 -57 135 -30 181 9 15 42 6 57 -15z
m79 -265 c16 -19 16 -21 -3 -38 -31 -28 -26 -78 11 -109 39 -33 61 -34 25 -1
-29 27 -33 61 -12 91 14 19 15 19 39 -4 13 -13 39 -43 56 -68 l32 -44 -43 -20
c-75 -34 -171 -20 -198 29 -17 32 -11 80 16 142 28 62 37 65 77 22z m168 -39
c15 -18 16 -81 1 -96 -6 -6 -18 2 -32 24 -13 18 -35 45 -48 61 l-26 27 46 0
c29 0 50 -6 59 -16z m5 -269 c-11 -45 -111 -87 -131 -55 -3 6 0 10 8 10 8 0
20 6 27 14 6 8 17 13 24 10 6 -2 25 9 41 26 32 34 40 33 31 -5z"/>
<path d="M2510 2040 c-125 -132 -129 -134 -148 -117 -32 29 -84 33 -106 8 -18
-20 -18 -23 -4 -38 9 -9 40 -18 69 -21 l52 -5 93 99 94 99 0 -45 c0 -52 -18
-83 -64 -111 -17 -10 -26 -19 -21 -19 19 0 74 39 90 63 8 14 20 50 25 82 6 35
19 70 36 92 14 19 23 37 20 41 -4 3 -65 -54 -136 -128z"/>
<path d="M2736 1950 c-16 -5 -38 -18 -50 -29 -11 -11 -41 -29 -66 -40 -62 -27
-34 -25 96 7 110 27 111 27 120 7 6 -12 19 -20 34 -20 35 0 39 31 6 46 -20 9
-43 8 -113 -8 l-88 -21 28 22 c16 11 45 26 65 32 20 7 28 12 17 12 -11 0 -33
-4 -49 -8z"/>
<path d="M2916 1819 l-77 -81 -75 7 -75 7 21 34 c24 42 24 45 5 38 -8 -3 -24
-21 -35 -39 -19 -31 -22 -32 -62 -24 -24 4 -59 8 -78 8 -58 -1 -4 -17 58 -18
28 -1 52 -3 52 -5 0 -6 -111 -156 -115 -156 -1 0 -19 7 -38 15 -26 11 -43 12
-62 5 -50 -19 -19 -60 45 -60 48 0 64 13 126 102 l58 82 7 -34 c9 -40 -4 -79
-34 -102 -12 -10 -17 -18 -11 -18 7 0 26 16 44 36 29 33 31 41 25 79 l-6 43
63 -5 c35 -3 65 -8 68 -10 2 -2 -21 -27 -53 -55 -31 -27 -62 -60 -68 -71 -6
-12 13 2 43 31 56 55 68 61 68 38 0 -34 64 -29 75 5 7 20 -10 59 -26 59 -5 0
20 28 56 62 64 59 92 95 82 104 -2 3 -39 -32 -81 -77z"/>
<path d="M2870 1540 c-69 -66 -128 -119 -131 -120 -4 0 -9 22 -13 49 -6 43 -9
48 -26 44 -24 -6 -24 -1 0 -59 l21 -47 -27 -28 c-25 -26 -29 -27 -48 -14 -31
22 -60 18 -116 -16 -61 -38 -60 -51 2 -16 42 24 44 24 71 7 l28 -17 -36 -28
-36 -27 -67 30 c-37 17 -93 42 -125 57 l-59 27 28 19 c37 24 55 58 42 82 -7
14 -19 17 -51 15 -36 -3 -44 -8 -59 -37 -19 -39 -12 -71 20 -86 12 -5 21 -16
19 -23 -1 -7 23 -29 55 -48 46 -30 60 -34 76 -25 16 9 31 6 69 -12 l48 -22
-77 -3 c-52 -2 -88 2 -114 13 -35 14 -38 14 -51 -5 -15 -21 -38 -26 -48 -10
-3 5 15 19 40 31 48 23 59 35 23 26 -12 -4 -27 -2 -34 4 -8 7 -11 5 -10 -7 1
-12 -27 -31 -92 -65 -93 -47 -93 -48 -68 -61 l26 -14 -45 -22 c-25 -12 -45
-27 -45 -33 0 -6 34 8 76 31 41 23 78 40 80 37 3 -3 -9 -13 -26 -24 -22 -13
-41 -39 -66 -92 -19 -41 -34 -76 -34 -78 0 -2 10 1 21 8 21 11 38 0 39 -23 0
-5 10 -8 21 -8 17 0 20 -4 15 -22 -3 -13 -6 -30 -6 -39 0 -13 -10 -17 -50 -16
l-49 1 37 24 c47 31 63 47 40 39 -9 -3 -51 -31 -93 -62 l-77 -57 -89 23 c-49
13 -89 27 -89 31 0 5 4 8 9 8 5 0 17 3 27 7 12 4 15 3 10 -5 -5 -8 -2 -10 9
-5 12 4 13 8 5 13 -7 4 -8 10 -4 12 5 3 2 3 -6 1 -34 -10 -60 -5 -55 10 3 7
26 12 58 13 29 1 69 9 88 19 39 20 149 106 170 132 15 20 -40 -19 -112 -79
-44 -35 -47 -37 -52 -17 -3 11 -19 25 -36 32 -17 6 -31 14 -31 17 0 5 39 28
83 48 5 2 5 -18 2 -44 -6 -39 -5 -47 5 -37 7 6 15 32 17 56 5 38 10 47 34 57
35 15 59 40 37 40 -8 0 -23 -7 -34 -15 -10 -8 -21 -15 -24 -15 -3 0 -1 33 4
73 l10 74 48 -5 c54 -5 78 8 78 42 -1 11 1 32 2 46 3 22 -7 30 -85 70 -87 45
-88 45 -82 78 5 27 3 32 -14 32 -14 0 -21 8 -24 28 -2 16 -5 9 -6 -20 0 -27
-3 -48 -6 -48 -4 0 -20 7 -37 16 -16 9 -27 11 -23 5 3 -6 20 -18 36 -26 16 -9
27 -20 24 -25 -4 -6 3 -10 14 -10 14 0 21 -8 24 -27 l4 -28 2 27 1 27 63 -32
c34 -17 64 -33 66 -34 9 -5 -47 -63 -71 -73 -29 -13 -32 -21 -46 -140 l-7 -65
-137 -75 c-105 -58 -133 -78 -122 -86 20 -12 8 -44 -16 -44 -10 0 -31 5 -46
10 -15 6 -29 8 -32 5 -3 -3 9 -11 26 -17 18 -7 32 -16 32 -20 0 -4 6 -8 14 -8
12 0 12 -5 3 -30 -6 -17 -19 -30 -28 -30 -9 0 -19 -7 -23 -15 -3 -9 0 -15 9
-15 30 0 13 -21 -54 -65 -69 -45 -69 -45 -118 -34 -101 23 -169 -15 -167 -95
1 -40 -1 -43 -47 -68 l-48 -25 -32 33 c-18 19 -37 34 -41 34 -4 0 -7 -28 -7
-62 1 -35 3 -55 6 -45 5 18 6 18 24 1 10 -9 19 -24 20 -33 0 -11 2 -12 6 -3 3
7 -7 31 -22 52 -33 47 -30 69 5 37 14 -12 39 -33 57 -45 l31 -22 -5 21 c-5 18
-3 20 15 15 26 -9 40 13 19 29 -15 11 -14 13 9 24 23 10 29 9 50 -14 13 -14
30 -25 39 -25 17 0 16 3 18 -67 2 -41 -1 -53 -15 -56 -9 -3 -21 0 -26 5 -12
12 -35 1 -27 -12 12 -20 -18 -20 -39 -1 -12 12 -33 21 -47 20 -21 -1 -19 -2 9
-10 38 -11 39 -16 7 -52 -19 -21 -30 -27 -47 -21 -19 6 -19 7 -4 16 18 10 13
28 -9 28 -7 0 -15 -10 -17 -21 -2 -16 -14 -25 -43 -33 -48 -13 -188 -13 -192
1 -2 5 20 15 49 22 29 7 67 18 83 26 29 13 26 13 -48 14 -46 1 -76 -3 -72 -8
3 -5 -7 -12 -22 -14 -22 -3 -20 -4 12 -6 35 -2 37 -4 15 -10 -74 -23 -75 -22
-74 11 1 29 5 33 65 54 35 13 70 22 77 19 9 -3 10 0 3 14 -8 14 -6 23 10 37
l20 18 -23 18 c-13 10 -17 18 -10 18 18 0 15 14 -8 41 l-20 24 6 -29 c6 -26 5
-28 -17 -22 l-24 7 22 -17 c31 -23 29 -31 -8 -26 -25 4 -38 -2 -70 -34 -34
-34 -39 -36 -39 -17 0 12 7 29 16 37 8 9 11 16 6 16 -4 0 -19 -12 -33 -26 -22
-23 -29 -25 -77 -19 -48 6 -56 4 -69 -14 -12 -18 -21 -20 -54 -15 -42 7 -82
-12 -58 -27 7 -4 -8 -10 -35 -14 -32 -5 -44 -10 -35 -16 11 -7 11 -9 1 -9 -7
0 -10 -4 -7 -10 10 -16 38 -12 31 5 -4 12 3 15 30 15 19 0 41 6 48 13 12 10
10 14 -8 24 -20 12 -20 12 7 13 15 0 27 -5 27 -10 0 -6 6 -10 13 -9 6 1 25 -3
41 -10 16 -6 35 -10 43 -7 8 3 13 -2 13 -14 0 -15 -14 -22 -72 -35 -47 -10
-77 -23 -86 -36 -7 -11 -18 -16 -24 -13 -7 4 -7 9 0 13 7 4 8 12 2 21 -7 11
-10 12 -10 2 0 -7 -4 -11 -8 -8 -5 3 -9 -9 -9 -25 0 -17 -6 -35 -14 -40 -10
-6 -5 -9 19 -9 17 0 32 5 32 10 0 6 7 10 16 10 8 0 12 -4 9 -10 -3 -5 -1 -10
4 -10 6 0 11 5 11 10 0 6 12 11 28 12 18 1 14 3 -15 7 -60 9 -43 27 47 50 80
21 87 20 128 -29 9 -11 15 -12 20 -3 10 16 63 19 87 6 30 -17 9 -32 -71 -49
-86 -18 -108 -18 -98 -2 5 9 3 9 -9 -1 -12 -9 -30 -11 -61 -7 -30 5 -47 3 -52
-5 -5 -9 -2 -10 9 -6 11 4 17 1 17 -8 0 -11 -8 -13 -32 -9 -73 12 -118 27
-118 40 0 17 -17 18 -23 2 -4 -9 -8 -9 -14 -3 -9 12 -20 14 -88 25 -27 4 -42
8 -32 9 9 0 17 4 18 9 0 4 3 19 5 33 5 31 -16 52 -47 47 -35 -5 -33 -23 3 -23
17 0 33 -6 35 -13 3 -8 -2 -10 -14 -6 -16 5 -16 4 1 -10 20 -16 20 -16 0 -16
-30 0 -122 53 -117 67 2 7 11 9 19 6 29 -11 64 6 64 31 0 14 6 27 13 29 7 3 5
6 -5 6 -13 1 -18 -7 -18 -23 0 -13 -6 -26 -13 -29 -8 -3 -13 3 -13 14 0 11 4
19 9 19 4 0 5 5 2 10 -12 20 -25 9 -25 -20 0 -16 -5 -30 -11 -30 -6 0 -9 7 -6
14 4 10 1 13 -8 10 -8 -3 -13 -11 -12 -17 1 -6 -7 -12 -18 -14 -11 -1 -14 0
-7 3 6 3 12 10 12 15 0 6 -8 6 -19 -1 -16 -8 -23 -6 -33 7 -7 10 -19 19 -26
21 -14 2 -92 52 -92 58 0 11 31 2 45 -12 9 -9 19 -14 22 -10 13 12 -15 28 -56
32 -23 2 -40 0 -37 -5 11 -17 153 -110 224 -146 74 -37 90 -57 31 -36 -17 6
-35 8 -40 5 -5 -3 -26 0 -47 7 -20 7 -48 12 -62 11 -17 -1 -21 1 -12 6 10 7
10 11 -3 22 -8 7 -15 10 -15 6 0 -3 -28 8 -63 26 -76 40 -85 44 -72 30 6 -6
38 -25 73 -42 79 -40 75 -50 -7 -16 -62 27 -88 33 -61 16 13 -9 13 -10 0 -10
-32 -1 19 -20 119 -44 55 -14 105 -27 111 -31 5 -3 24 -7 42 -9 37 -4 256 -52
281 -62 19 -7 20 -13 9 -31 -8 -13 -36 3 -44 27 -3 9 -7 10 -11 3 -4 -7 6 -21
23 -33 25 -18 34 -19 45 -10 8 7 12 16 9 21 -3 5 5 9 17 9 21 0 21 -1 5 -19
-17 -19 -17 -20 13 -35 29 -16 31 -15 47 9 12 19 22 24 37 19 15 -5 19 -3 14
8 -7 20 8 42 23 33 9 -6 9 -10 -1 -17 -11 -7 -11 -8 1 -6 8 1 25 -2 38 -6 18
-6 21 -11 12 -21 -9 -11 -6 -16 12 -25 22 -11 22 -11 3 5 -19 15 -12 16 94 9
84 -5 112 -4 107 5 -4 6 -35 11 -77 11 -89 0 -90 17 -1 22 66 3 67 3 109 -37
24 -22 43 -47 44 -55 0 -11 2 -11 6 -2 3 7 -1 26 -7 43 -11 27 -10 31 14 50
26 21 34 53 16 64 -20 13 -9 22 47 37 33 10 65 13 77 8 26 -9 60 3 78 29 23
32 62 36 104 10 37 -22 37 -23 13 -31 -32 -13 -116 -36 -219 -61 -47 -11 -77
-23 -68 -25 10 -2 55 6 100 17 96 24 113 23 134 -7 17 -25 11 -27 -33 -12 -25
9 -36 7 -74 -14 -47 -28 -97 -33 -132 -14 -20 10 -21 10 -8 -5 12 -15 11 -17
-13 -17 -34 0 -34 -27 0 -42 23 -11 33 -8 85 20 31 18 65 32 74 32 9 0 14 4
10 9 -3 6 4 15 15 21 20 11 21 10 10 -9 -14 -27 -8 -37 34 -51 18 -6 33 -16
32 -23 -2 -18 18 -24 22 -6 2 10 -11 22 -38 34 -46 21 -50 30 -16 39 32 8 56
-2 49 -20 -3 -8 1 -14 11 -14 21 0 20 19 -1 37 -16 13 -14 14 19 9 21 -2 40 0
44 5 7 12 -36 48 -58 49 -20 0 -24 -15 -6 -26 7 -4 8 -3 4 4 -5 8 -2 10 8 6
16 -6 12 -24 -5 -24 -9 0 -37 29 -42 43 -3 11 104 47 116 40 5 -3 6 5 2 17 -6
17 -4 21 6 14 8 -5 21 -7 30 -6 11 2 21 -8 27 -27 10 -28 9 -30 -17 -29 -34 1
-51 -8 -51 -27 0 -26 39 -27 83 -2 l42 25 32 -27 c38 -32 40 -37 13 -44 -13
-3 -25 2 -35 16 -8 12 -15 16 -15 10 0 -7 5 -15 10 -18 17 -10 3 -22 -35 -29
-19 -4 -37 -11 -40 -16 -9 -14 16 -12 62 4 36 13 46 12 99 -5 32 -11 69 -26
82 -35 42 -27 34 -8 -12 30 -44 36 -63 45 -51 26 3 -6 -5 -10 -19 -10 -14 0
-28 5 -31 10 -3 6 1 10 10 10 9 0 61 16 116 35 l100 35 11 -30 c18 -53 96 -76
112 -33 9 23 -40 71 -78 78 -20 4 -68 -6 -137 -28 l-106 -34 -33 27 -34 27 25
14 c16 9 53 14 107 13 45 -1 82 2 82 7 0 5 15 6 33 4 25 -4 28 -3 12 4 -11 5
-32 10 -46 10 -46 2 -40 14 19 38 31 12 60 23 64 23 4 0 23 -16 44 -35 20 -19
39 -34 41 -32 2 2 -5 24 -16 48 l-20 44 97 50 97 51 65 -22 c50 -16 66 -26 68
-42 2 -11 9 -26 17 -32 13 -11 387 -110 415 -110 39 1 -31 23 -193 63 -152 37
-174 44 -164 58 7 8 19 13 29 11 11 -2 18 6 23 27 4 17 10 31 15 31 13 0 32
-29 25 -40 -3 -5 -2 -10 4 -10 5 0 11 5 13 11 3 8 10 5 21 -6 10 -9 21 -15 24
-11 4 3 3 6 -1 6 -4 0 5 10 20 23 23 20 25 26 15 46 -8 15 -20 21 -34 19 -26
-4 -20 -23 6 -22 11 0 17 -5 15 -15 -5 -24 -60 -26 -87 -4 -23 19 -23 19 -6
77 9 31 15 59 13 60 -1 1 -14 7 -27 12 l-24 10 34 20 c33 20 35 20 74 2 23
-10 65 -18 100 -18 33 -1 78 -7 100 -15 21 -8 41 -13 42 -11 7 7 -25 25 -107
61 -47 21 -88 41 -93 44 -4 4 27 29 68 56 41 26 73 50 70 53 -2 3 -40 -18 -83
-47 -72 -47 -82 -51 -107 -41 l-28 11 21 15 c46 32 16 78 -34 55 -37 -17 -30
-61 13 -81 18 -8 32 -17 32 -20 0 -3 -27 -22 -60 -43 l-60 -37 -77 23 -77 24
35 18 c50 25 151 97 146 103 -3 2 -47 -23 -97 -57 -90 -60 -93 -61 -131 -49
-42 12 -46 19 -23 38 8 7 15 25 15 41 0 17 6 30 18 33 9 4 35 22 57 42 45 40
33 36 -35 -10 -25 -17 -63 -33 -85 -36 -34 -4 -41 -9 -45 -32 -8 -42 -101 -95
-160 -91 -41 3 -41 0 -1 -13 12 -4 12 -7 0 -20 -18 -17 -49 -9 -49 13 0 31
-24 4 -59 -65 -20 -39 -39 -72 -42 -72 -3 0 -11 12 -18 26 -10 22 -9 30 4 44
19 22 10 49 -15 43 -36 -10 -28 14 13 37 23 13 64 38 91 57 38 27 51 32 57 21
5 -7 9 -16 9 -20 0 -13 40 -19 60 -8 22 12 28 58 8 78 -6 6 -10 13 -7 15 2 1
21 15 42 30 34 26 37 26 37 9 0 -25 23 -34 67 -26 41 8 47 22 58 118 l7 69 24
-29 c20 -23 24 -37 20 -69 -4 -37 -3 -38 10 -21 18 25 18 57 0 81 -13 17 -10
23 27 56 40 35 42 35 52 16 6 -13 30 -26 63 -35 l52 -15 -37 -34 c-41 -37 -28
-35 23 4 30 22 35 23 80 11 27 -7 51 -13 52 -14 5 -3 -32 -124 -38 -124 -3 0
-47 13 -98 28 -80 24 -91 30 -78 41 22 19 20 48 -4 56 -28 9 -52 -13 -48 -44
3 -24 12 -29 128 -64 69 -20 130 -35 136 -33 6 3 15 21 18 41 7 37 10 41 88
99 45 33 47 34 63 16 16 -18 19 -17 75 18 l59 37 -22 23 -21 22 23 16 c52 37
142 116 137 121 -3 3 -42 -25 -86 -62 l-82 -67 -24 23 c-29 28 -30 32 -3 44
12 6 21 15 20 20 -2 17 -43 11 -55 -7 -8 -14 -5 -23 17 -46 32 -33 33 -40 10
-59 -60 -47 -62 -47 -88 -23 -30 28 -31 36 -5 43 26 7 26 37 1 37 -11 0 -27
-7 -36 -16 -15 -16 -14 -20 22 -56 35 -36 36 -40 20 -49 -10 -6 -33 -24 -51
-40 -39 -34 -46 -36 -39 -11 4 15 -11 22 -94 46 -54 15 -106 30 -117 33 -13 4
-15 8 -7 16 14 14 14 54 1 59 -6 2 21 29 60 61 l71 58 61 -11 c34 -7 74 -18
90 -26 36 -18 44 -18 27 3 -8 9 -43 29 -78 45 l-64 29 31 22 c17 12 53 41 80
65 l50 42 7 -27 7 -28 9 24 c7 17 14 21 27 16 34 -15 57 -11 57 10 0 26 -36
31 -69 9 -21 -13 -26 -14 -26 -2 0 7 44 52 98 100 111 99 168 156 161 162 -2
3 -60 -49 -129 -114z m-540 -101 c-11 -20 -25 -25 -35 -10 -7 12 24 43 36 35
5 -3 5 -13 -1 -25z m-196 -102 c-7 -20 -34 -23 -34 -4 0 19 22 39 32 29 5 -5
6 -16 2 -25z m311 -38 c5 -6 3 -9 -8 -9 -15 0 -97 47 -97 56 0 5 94 -37 105
-47z m-7 -78 l64 -6 -127 -103 c-136 -110 -149 -115 -149 -46 0 32 -1 34 -13
18 -7 -10 -13 -33 -13 -51 0 -32 -1 -33 -41 -33 -29 0 -38 3 -33 13 51 84 99
150 120 164 14 10 39 30 56 45 26 23 35 25 52 16 12 -7 49 -14 84 -17z m-198
-1 c17 -10 16 -12 -27 -34 -29 -15 -63 -13 -63 3 0 7 57 39 70 40 3 0 12 -3
20 -9z m598 -163 c8 -10 0 -19 -33 -41 -60 -37 -80 -24 -29 20 44 38 48 39 62
21z m-933 -61 c18 -13 17 -14 -6 -29 -31 -20 -79 -32 -79 -19 0 5 -11 7 -25 4
-37 -7 -30 11 13 36 43 25 71 27 97 8z m-121 -62 c20 -8 9 -34 -15 -34 -18 0
-26 20 -12 33 8 8 8 8 27 1z m-19 -81 c-2 -10 -4 -24 -4 -30 -1 -7 -13 -13
-27 -13 -18 0 -23 4 -17 13 8 12 9 17 12 37 0 6 10 10 20 10 13 0 18 -6 16
-17z m121 -24 c41 -12 74 -25 74 -28 0 -6 -164 -112 -185 -120 -5 -2 -3 5 6
15 23 28 31 44 22 44 -5 0 -25 -22 -45 -49 -22 -29 -58 -61 -93 -80 -31 -18
-55 -35 -52 -38 3 -3 20 5 37 17 37 26 51 19 24 -11 l-19 -22 37 5 c40 4 37
10 54 -117 l5 -40 -90 -34 c-49 -19 -93 -34 -98 -33 -4 0 -13 21 -19 45 -6 24
-16 52 -23 63 -11 17 -12 16 -8 -8 2 -16 1 -28 -4 -28 -4 0 -14 -2 -21 -5 -9
-4 -18 5 -25 22 l-11 28 5 -31 c3 -18 0 -35 -6 -38 -20 -13 -24 25 -7 57 37
71 39 72 78 69 71 -6 107 80 56 131 l-23 23 52 31 c33 19 54 27 56 19 2 -6 12
6 22 27 12 22 26 37 37 37 21 0 22 -4 7 -31 -6 -11 -8 -25 -6 -32 3 -7 12 5
21 26 9 20 22 37 30 37 8 0 16 7 20 15 3 9 0 15 -8 15 -9 0 -12 9 -8 26 3 17
9 23 19 20 8 -3 48 -16 89 -27z m286 -144 c18 -4 37 -10 42 -13 14 -8 -66 -52
-96 -52 -30 0 -58 -23 -58 -48 0 -29 28 -60 60 -67 17 -4 30 -10 30 -14 0 -5
-163 -91 -174 -91 -2 0 -7 11 -10 24 -3 13 -9 31 -12 40 -5 12 1 16 24 16 35
0 49 15 33 34 -8 10 -5 16 15 25 15 6 24 14 21 17 -2 3 -29 -8 -58 -25 -30
-16 -82 -44 -117 -61 -35 -18 -61 -34 -59 -37 3 -2 29 8 57 22 29 15 56 23 60
18 12 -14 33 -73 28 -79 -10 -9 -39 9 -54 35 -13 23 -14 23 -10 4 3 -13 9 -32
12 -43 5 -16 -4 -24 -52 -46 -33 -14 -69 -26 -81 -26 -13 0 -23 -4 -23 -9 0
-5 -12 -9 -26 -9 -14 0 -23 -4 -19 -10 3 -5 0 -10 -8 -10 -8 0 -17 7 -21 15
-12 32 -66 10 -66 -27 0 -31 -26 -20 -37 16 l-10 33 81 34 c44 19 86 34 93 34
19 0 29 14 78 113 25 50 52 92 60 92 8 0 17 4 20 10 3 6 -1 7 -9 4 -18 -7 -20
4 -7 24 7 12 14 11 39 -2 56 -29 97 -18 97 26 0 10 20 30 45 46 43 28 46 28
62 11 9 -9 32 -20 50 -24z m439 -9 l54 -25 -52 0 c-28 -1 -64 4 -80 10 -27 10
-27 11 -9 25 25 18 24 18 87 -10z m-272 -43 c47 -14 87 -27 88 -28 1 -1 -6
-30 -16 -66 -17 -60 -20 -64 -45 -61 -15 2 -33 -2 -40 -7 -8 -7 -28 -5 -64 6
-29 9 -52 19 -52 22 0 3 41 28 91 54 50 27 88 51 85 54 -3 3 -50 -19 -105 -50
-92 -52 -103 -55 -131 -45 l-31 10 21 23 c12 13 20 32 18 44 -2 16 7 28 37 46
22 13 44 25 49 25 6 0 48 -12 95 -27z m-900 1 c17 -4 28 -11 24 -17 -4 -6 -1
-7 8 -2 17 11 65 8 90 -6 23 -12 25 -48 4 -75 -12 -16 -14 -16 -15 -3 0 28
-28 44 -58 33 -31 -11 -93 5 -100 26 -3 7 3 19 14 27 10 7 13 13 7 13 -16 0
-30 -21 -38 -58 -6 -31 -6 -33 13 -21 24 15 68 5 76 -17 7 -18 -21 -57 -35
-48 -5 3 -3 14 3 24 10 15 10 22 1 31 -9 9 -11 7 -6 -10 7 -28 -15 -27 -28 2
l-10 22 5 -22 c6 -30 -7 -29 -24 2 -7 14 -17 25 -22 25 -18 0 -7 50 14 64 25
18 32 19 77 10z m312 -17 c-1 -4 -1 -13 -1 -21 0 -14 -48 -32 -58 -21 -7 7 40
56 51 52 5 -1 8 -6 8 -10z m26 -132 c-2 -16 -6 -14 -21 17 -11 21 -16 44 -12
55 6 15 10 13 22 -17 8 -19 13 -43 11 -55z m-767 -50 c13 -14 22 -26 19 -28
-6 -4 -100 -38 -134 -48 -27 -8 -25 -4 25 46 30 30 57 55 60 55 4 0 17 -11 30
-25z m-216 -11 c9 -3 16 -15 16 -25 0 -15 -7 -19 -34 -19 -43 0 -55 16 -19 25
21 5 24 8 12 16 -16 10 1 12 25 3z m72 -16 c5 -8 2 -9 -9 -5 -23 9 -31 -10
-10 -21 14 -9 15 -13 4 -26 -14 -17 -41 -22 -41 -7 0 37 15 71 31 71 10 0 21
-5 25 -12z m664 -34 c6 -14 10 -32 10 -40 0 -13 -2 -13 -16 1 -20 20 -37 15
-44 -14 -5 -21 -5 -21 -40 8 -23 20 -30 31 -20 32 8 1 20 3 25 3 6 1 21 9 35
19 33 23 39 22 50 -9z m-634 -44 c21 0 17 -18 -7 -30 -16 -9 -26 -8 -47 6 -25
16 -25 18 -7 25 11 4 26 6 33 3 8 -2 20 -4 28 -4z m131 -77 c-16 -4 -15 -6 5
-23 19 -15 20 -20 9 -33 -10 -13 -9 -18 8 -29 27 -17 27 -32 1 -18 -12 6 -26
22 -32 36 -8 17 -14 21 -19 12 -5 -8 -33 -12 -78 -13 -39 0 -71 -3 -71 -7 0
-10 -32 -10 -54 -2 -28 11 -17 26 17 23 54 -4 160 13 175 27 8 9 9 14 2 14
-25 0 0 16 27 17 15 0 20 -1 10 -4z m64 -34 c21 -18 22 -20 4 -15 -19 6 -19 5
-2 -8 12 -10 15 -16 7 -21 -12 -7 -36 18 -43 48 -7 23 6 22 34 -4z m883 0 c25
-20 35 -49 17 -49 -16 0 -61 41 -61 56 0 19 13 18 44 -7z m-1300 -70 c-19 -21
-23 -22 -43 -10 -23 15 3 39 34 33 25 -4 25 -5 9 -23z m521 -15 c-20 -15 -37
-14 -42 3 -2 5 11 10 29 11 31 1 32 0 13 -14z"/>
<path d="M1655 490 c-18 -20 -53 -39 -100 -54 -16 -6 -17 -9 -5 -16 35 -22 64
-5 118 72 18 24 10 23 -13 -2z"/>
<path d="M1415 600 c-18 -19 -18 -20 3 -20 24 0 38 18 25 31 -6 6 -16 2 -28
-11z"/>
<path d="M2585 1495 c-51 -45 -64 -52 -91 -48 -23 4 -44 -3 -87 -31 -72 -46
-74 -57 -3 -17 49 28 55 30 67 15 12 -14 9 -20 -16 -40 -17 -13 -25 -24 -19
-24 6 0 23 11 37 24 15 14 34 26 44 28 10 2 18 9 18 16 0 7 27 36 60 66 33 30
58 56 55 59 -3 3 -32 -18 -65 -48z"/>
<path d="M2872 1330 c-142 -124 -156 -137 -127 -122 23 12 240 195 250 212 18
29 -9 9 -123 -90z"/>
<path d="M2572 1083 c-46 -36 -81 -68 -78 -71 5 -5 77 48 146 107 66 57 15 30
-68 -36z"/>
<path d="M2875 940 c-112 -82 -121 -87 -150 -77 -16 5 -34 14 -40 18 -5 5 -13
9 -18 9 -19 0 16 -30 109 -91 l95 -63 -25 -15 c-39 -24 -30 -61 15 -61 14 0
49 38 49 54 0 8 -36 38 -80 67 -44 29 -78 54 -76 56 9 9 103 -21 123 -39 13
-12 23 -17 23 -10 0 19 -51 52 -90 58 l-38 6 87 59 c101 68 148 105 141 112
-3 2 -59 -35 -125 -83z"/>
<path d="M1892 898 c18 -27 45 -35 62 -18 14 15 -18 40 -52 40 -23 0 -24 -1
-10 -22z"/>
<path d="M2566 584 c-22 -21 -20 -51 3 -64 23 -12 68 -13 75 -2 3 5 -8 6 -24
4 -35 -5 -48 15 -30 47 13 25 38 28 36 5 0 -9 5 -19 12 -21 7 -3 12 4 12 15 0
33 -56 44 -84 16z"/>
<path d="M0 514 c0 -5 12 -17 26 -27 23 -18 27 -18 50 -2 31 20 27 29 -7 17
-17 -7 -31 -5 -46 6 -13 8 -23 10 -23 6z"/>
<path d="M610 500 c0 -13 62 -51 70 -44 5 6 -50 54 -62 54 -5 0 -8 -5 -8 -10z"/>
<path d="M240 463 c1 -10 7 -29 15 -43 16 -29 20 -19 4 11 -7 15 -7 24 2 35 9
11 8 14 -5 14 -9 0 -16 -8 -16 -17z"/>
<path d="M513 463 c-27 -18 -30 -43 -7 -43 14 0 15 2 3 17 -12 15 -12 16 7 11
26 -7 49 6 40 21 -9 14 -16 13 -43 -6z"/>
<path d="M1305 425 c-49 -25 -79 -42 -65 -38 34 8 170 70 170 77 0 11 -16 5
-105 -39z"/>
<path d="M0 450 c0 -17 197 -136 208 -125 8 8 -30 34 -51 35 -9 0 -16 6 -15
13 2 6 -5 11 -14 9 -12 -2 -18 4 -19 15 0 11 -3 13 -6 5 -3 -9 -20 -2 -54 23
-27 19 -49 30 -49 25z"/>
<path d="M554 418 c-7 -22 4 -41 18 -32 6 4 5 9 -3 15 -7 4 -10 11 -6 16 4 4
17 2 28 -5 18 -11 18 -11 8 6 -15 24 -37 24 -45 0z"/>
<path d="M2182 418 c-27 -27 -12 -47 66 -92 42 -25 81 -47 86 -49 5 -2 -5 -25
-23 -51 -31 -44 -34 -46 -54 -33 -12 7 -44 26 -71 42 -42 25 -46 30 -32 40 25
19 20 45 -9 45 -26 0 -48 -29 -37 -47 9 -14 173 -113 187 -113 16 0 78 101 68
111 -4 4 -44 28 -87 53 -55 32 -75 47 -63 51 21 9 31 37 15 47 -18 11 -32 10
-46 -4z"/>
<path d="M505 406 c-22 -9 -31 -21 -33 -40 -1 -14 3 -26 9 -26 5 0 8 4 4 9 -3
5 0 13 6 17 8 5 8 9 -1 14 -8 5 -1 11 19 18 17 6 31 13 31 16 0 8 1 8 -35 -8z"/>
<path d="M1161 408 c-1 -10 -11 -18 -28 -20 -36 -4 -36 -22 0 -26 29 -4 42 13
34 45 -4 15 -5 16 -6 1z"/>
<path d="M499 330 c-11 -41 -12 -63 -5 -70 13 -13 29 -13 21 0 -4 6 7 10 24
10 24 0 31 4 31 20 0 11 -5 20 -11 20 -6 0 -9 -7 -5 -15 3 -10 -1 -15 -13 -15
-11 0 -26 -3 -34 -6 -12 -4 -14 0 -10 15 3 12 11 21 19 21 7 0 16 4 19 10 3 6
-1 7 -10 4 -14 -6 -15 -1 -10 30 11 56 1 42 -16 -24z"/>
<path d="M690 355 c-13 -14 -18 -25 -12 -25 7 0 12 5 12 10 0 6 5 10 11 10 5
0 7 -4 4 -10 -3 -5 -2 -10 4 -10 5 0 13 5 16 10 3 6 1 10 -5 10 -7 0 -10 7 -6
15 8 21 3 19 -24 -10z"/>
<path d="M425 349 c-4 -6 2 -13 14 -16 12 -3 21 -12 21 -19 0 -8 4 -14 8 -14
14 0 10 29 -5 34 -8 3 -11 10 -8 16 3 5 -1 10 -9 10 -8 0 -18 -5 -21 -11z"/>
<path d="M710 273 c8 -4 20 -12 25 -19 8 -10 20 -11 58 -2 26 6 47 16 47 21 0
5 -7 6 -16 3 -38 -14 -62 -17 -68 -7 -4 6 -19 11 -34 10 -16 0 -21 -3 -12 -6z"/>
<path d="M190 215 c14 -17 40 -20 40 -6 0 5 10 12 23 14 12 2 0 5 -27 6 -42 1
-47 -1 -36 -14z"/>
<path d="M290 194 c-33 -13 -33 -14 -5 -8 17 3 40 8 53 11 13 3 22 1 22 -6 0
-6 7 -11 16 -11 9 0 14 6 12 13 -6 17 -57 18 -98 1z"/>
<path d="M452 201 c-8 -4 -10 -15 -6 -26 5 -13 4 -16 -4 -11 -22 13 -2 -19 24
-37 l24 -18 -17 36 c-14 29 -15 38 -4 44 7 5 9 11 4 14 -5 3 -15 2 -21 -2z"/>
</g>
</svg>
